<?xml version="1.0" encoding="UTF-8" standalone="no"?>
<!-- Created with Inkscape (http://www.inkscape.org/) -->

<svg
   xmlns:dc="http://purl.org/dc/elements/1.1/"
   xmlns:cc="http://creativecommons.org/ns#"
   xmlns:rdf="http://www.w3.org/1999/02/22-rdf-syntax-ns#"
   xmlns:svg="http://www.w3.org/2000/svg"
   xmlns="http://www.w3.org/2000/svg"
   xmlns:sodipodi="http://sodipodi.sourceforge.net/DTD/sodipodi-0.dtd"
   xmlns:inkscape="http://www.inkscape.org/namespaces/inkscape"
   width="65.858841"
   height="92.032761"
   viewBox="0 0 65.858841 92.032761"
   id="svg4392"
   version="1.1"
   inkscape:version="0.91 r13725"
   sodipodi:docname="Nice-3-A.svg">
  <defs
     id="defs4394" />
  <sodipodi:namedview
     id="base"
     pagecolor="#ffffff"
     bordercolor="#666666"
     borderopacity="1.0"
     inkscape:pageopacity="0.0"
     inkscape:pageshadow="2"
     inkscape:zoom="5.6"
     inkscape:cx="27.367465"
     inkscape:cy="37.199614"
     inkscape:document-units="px"
     inkscape:current-layer="layer1"
     showgrid="false"
     fit-margin-top="0"
     fit-margin-left="0"
     fit-margin-right="0"
     fit-margin-bottom="0"
     units="px"
     inkscape:window-width="1920"
     inkscape:window-height="1007"
     inkscape:window-x="0"
     inkscape:window-y="0"
     inkscape:window-maximized="1" />
  <metadata
     id="metadata4397">
    <rdf:RDF>
      <cc:Work
         rdf:about="">
        <dc:format>image/svg+xml</dc:format>
        <dc:type
           rdf:resource="http://purl.org/dc/dcmitype/StillImage" />
        <dc:title></dc:title>
      </cc:Work>
    </rdf:RDF>
  </metadata>
  <g
     inkscape:label="Layer 1"
     inkscape:groupmode="layer"
     id="layer1"
     transform="translate(-547.40266,-744.66351)">
    <path
       inkscape:connector-curvature="0"
       style="fill:#999999;fill-opacity:1;stroke:#000000;stroke-width:1;stroke-linecap:butt;stroke-linejoin:miter;stroke-miterlimit:4;stroke-dasharray:none;stroke-opacity:1"
       d="m 590.89345,797.97615 c -2.04832,-11.8399 0.74914,-25.03127 -2.79372,-31.44473 -14.76512,-20.31571 -14.73877,-5.18282 -17.37822,-1.3026 -0.0363,4.05932 -4.78096,30.67213 -1.79478,33.08793 l 21.96672,-0.3406 z"
       id="path2948-5-0-2-1-7-6"
       sodipodi:nodetypes="ccccc" />
    <ellipse
       ry="9.6070824"
       rx="10.712934"
       cy="758.07056"
       cx="579.00708"
       style="fill:#ffbd8d;fill-opacity:1;stroke:#000000;stroke-width:1;stroke-miterlimit:4;stroke-dasharray:none;stroke-opacity:1"
       id="path4161-2-6-7-7-4-6" />
    <path
       inkscape:connector-curvature="0"
       style="fill:none;stroke:#000000;stroke-width:1;stroke-linecap:butt;stroke-linejoin:miter;stroke-miterlimit:4;stroke-dasharray:none;stroke-opacity:1"
       d="m 583.6496,761.41031 c 2.19733,1.4716 3.14143,1.2424 5.32192,0"
       id="path4159-6-8-2-7-1-4"
       sodipodi:nodetypes="cc" />
    <path
       inkscape:connector-curvature="0"
       style="fill:#ffbd8d;fill-opacity:1;stroke:#000000;stroke-width:1;stroke-linecap:butt;stroke-linejoin:miter;stroke-miterlimit:4;stroke-dasharray:none;stroke-opacity:1"
       d="m 589.58324,759.8804 c 3.63461,0.76048 3.81259,-2.64918 0.0361,-1.89544"
       id="path4163-7-5-2-1-8-0"
       sodipodi:nodetypes="cc" />
    <ellipse
       ry="1.0504941"
       rx="1.8453245"
       cy="756.75732"
       cx="586.71667"
       style="fill:#ffffff;stroke:#ffffff;stroke-width:1;stroke-miterlimit:4;stroke-dasharray:none;stroke-opacity:1"
       id="path4165-4-7-6-6-1-5-0" />
    <ellipse
       ry="0.46019626"
       rx="0.59842765"
       cy="756.69037"
       cx="588.03369"
       style="fill:#000000;fill-opacity:1;stroke:#000000;stroke-width:0.99999994;stroke-miterlimit:4;stroke-dasharray:none;stroke-opacity:1"
       id="path4165-5-7-9-3-1-5-9-4" />
    <path
       inkscape:connector-curvature="0"
       style="fill:none;stroke:#000000;stroke-width:1;stroke-linecap:butt;stroke-linejoin:miter;stroke-miterlimit:4;stroke-dasharray:none;stroke-opacity:1"
       d="m 575.92727,770.56278 -0.878,20.48627 7.6092,0 0.58533,-19.60829"
       id="path3805-8-1-7-5-2" />
    <path
       inkscape:connector-curvature="0"
       style="fill:#0b290b;fill-opacity:1;fill-rule:evenodd;stroke:#000000;stroke-width:1;stroke-linecap:butt;stroke-linejoin:miter;stroke-miterlimit:4;stroke-dasharray:none;stroke-opacity:1"
       d="m 590.6921,798.04409 -21.69774,0.0616 c -1.18482,2.42164 -1.09293,4.52534 -0.45508,6.26563 -1.69493,2.38463 -3.01522,5.63557 -5.49252,8.43289 -3.45081,3.89659 -7.44588,6.58888 -7.80073,6.91644 l 8.90009,7.1533 c 1.58829,-0.56789 6.41659,-3.60041 9.78458,-6.9193 6.33224,-6.18359 10.94108,-13.76322 16.00518,-20.9588 0.22077,-0.3137 0.94848,-0.49436 0.7799,-0.95177 z"
       id="path5593-3"
       sodipodi:nodetypes="cccscccscc" />
    <path
       inkscape:connector-curvature="0"
       style="fill:#000000;stroke:#000000;stroke-width:1;stroke-linecap:butt;stroke-linejoin:miter;stroke-miterlimit:4;stroke-dasharray:none;stroke-opacity:1"
       d="m 554.58968,820.39557 -6.45606,7.6407 9.94508,7.1477 c 0.3774,0.317 0.85547,0.45873 1.28974,0.56513 7.64644,1.8732 9.932,-2.74763 3.98758,-2.76043 -1.3478,0 -0.98857,-1.0075 -2.68458,-2.0476 l 3.43156,-4.1373 z"
       id="path3803-6-3-1"
       sodipodi:nodetypes="ccccsccc" />
    <path
       inkscape:connector-curvature="0"
       style="fill:#217821;fill-opacity:1;fill-rule:evenodd;stroke:#000000;stroke-width:1;stroke-linecap:butt;stroke-linejoin:miter;stroke-miterlimit:4;stroke-dasharray:none;stroke-opacity:1"
       d="m 590.81267,798.02346 -21.88533,0.28153 c -3.57117,7.2991 4.45062,12.08984 4.45062,12.08984 l 5.67187,-0.0781 c 6.26799,-0.0219 11.21486,13.22531 12.38478,16.6331 l 0.70349,1.37061 9.14332,-7.01906 c -0.3018,-3.66758 -4.56746,-12.07447 -10.9667,-17.93314 0.25793,-1.69529 0.47691,-2.93577 0.71316,-4.59958 0.0436,-0.16837 -0.0433,-0.39191 -0.21521,-0.7452 z"
       id="path5591"
       sodipodi:nodetypes="cccccccccc" />
    <path
       inkscape:connector-curvature="0"
       style="fill:#000000;stroke:#000000;stroke-width:1;stroke-linecap:butt;stroke-linejoin:miter;stroke-miterlimit:4;stroke-dasharray:none;stroke-opacity:1"
       d="m 591.76278,827.64427 4.14814,7.606 2.24491,0.1306 8.65643,-5.6425 c 10.3354,-5.6757 5.82767,-10.6864 -3.01841,-3.9514 l -2.6166,-4.6954 z"
       id="path3803-6-0-5"
       sodipodi:nodetypes="ccccccc" />
    <path
       inkscape:connector-curvature="0"
       style="fill:#ab37c8;fill-opacity:1;stroke:#000000;stroke-width:1;stroke-linecap:butt;stroke-linejoin:miter;stroke-miterlimit:4;stroke-dasharray:none;stroke-opacity:1"
       d="m 583.84326,793.71655 c 4.79464,3.5546 4.67112,-2.1099 -1.85714,-3.0302 l -7.13533,-0.098 c -4.32813,9.9447 10.44084,13.502 8.99247,3.1279 z"
       id="path3924-9-8-0-5-8-5"
       sodipodi:nodetypes="cccc" />
    <path
       inkscape:connector-curvature="0"
       style="fill:#d38d5f;stroke:#000000;stroke-width:1;stroke-linecap:butt;stroke-linejoin:miter;stroke-miterlimit:4;stroke-dasharray:none;stroke-opacity:1"
       d="m 568.71479,761.98992 c 3.25362,-0.8951 7.0223,-1.1677 6.82912,-5.1736 4.18059,-0.013 14.19483,-4.9894 12.00269,-9.7263 -0.99446,-1.2723 -2.96686,-1.3513 -4.55276,-1.6555 -2.23663,-0.4291 -6.8291,-0.207 -6.8291,-0.207 -6.56523,2.8165 -13.88036,10.1276 -7.44995,16.7624 z"
       id="path3975-1"
       sodipodi:nodetypes="cccacc" />
  </g>
</svg>
